<svg width="250" height="250" viewBox="0 0 250 250" fill="none" xmlns="http://www.w3.org/2000/svg">
<path d="M91.5253 131.205C101.729 131.179 107.524 134.47 113.602 142.503C114.163 143.245 115.501 144.172 115.931 145.004C119.434 151.779 118.973 159.203 118.956 166.584L118.928 184.207L118.943 208.996C118.947 219.246 120.28 229.953 113.481 238.467C108.109 245.195 102.162 247.615 93.8402 248.755C87.5817 248.979 80.316 246.416 75.5197 242.33C72.6251 239.853 68.3292 234.338 67.2733 230.673C65.7001 225.212 66.1307 216.444 66.1283 210.657L66.1332 186.464L66.1544 166.142C66.1657 162.129 65.9701 156.611 66.6332 152.712C68.7677 140.159 79.1854 132.277 91.5253 131.205Z" fill="black"/>
<path d="M155.152 1.05224C162.421 0.74405 168.374 2.24764 174.164 6.78457C184.872 15.174 184.044 26.3887 184.015 38.5381L183.997 58.8968L184.012 81.5677C184.013 89.8692 184.984 100.697 179.068 107.467C173.837 113.453 169.058 117.405 160.878 118.323C154.667 119.155 148.367 117.663 143.187 114.135C130.505 105.375 131.314 95.7237 131.317 81.9375L131.337 58.262L131.323 37.2495C131.307 28.1812 130.645 19.3821 136.243 11.5238C140.951 4.9159 147.371 2.34574 155.152 1.05224Z" fill="black"/>
<path d="M25.6802 66.2492C29.8074 65.9941 35.0152 66.1323 39.21 66.1343L62.8013 66.1338L82.4781 66.0989C90.9607 66.0871 101.096 65.2055 107.795 71.1321C110.54 73.5598 113.263 76.7214 115.623 79.5532C117.212 81.4595 118.483 86.9783 118.732 89.4699C119.429 95.6482 117.769 102.929 113.782 107.858C107.453 114.741 103.618 117.641 94.2994 118.534C90.6236 118.982 85.0694 118.668 81.198 118.662L58.0198 118.651L36.6604 118.657C32.4634 118.66 27.0044 118.943 22.9804 118.234C11.674 116.242 2.4077 106.849 1.33215 95.2825C0.612864 87.5473 2.68437 80.9031 7.66308 74.905C12.5511 68.8935 18.1837 67.0268 25.6802 66.2492Z" fill="black"/>
<path d="M158.071 131.209C161.413 130.991 165.653 131.201 169.07 131.205L191.175 131.228L211.16 131.216C216.616 131.201 224.982 130.649 229.964 132.137C241.045 135.446 248.58 145.357 249.049 156.546C249.303 163.51 246.754 170.284 241.974 175.355C236.652 181.105 230.442 183.288 222.841 183.579C208.875 183.876 193.813 183.616 179.778 183.621L165.455 183.625C160.769 183.625 156.133 183.823 151.526 182.904C147.689 182.158 144.133 180.364 141.254 177.72C135.379 172.242 131.416 166.442 131.329 158.203C131.256 151.249 133.083 145.426 137.766 140.313C144.147 133.346 148.514 131.535 158.071 131.209Z" fill="black"/>
<path d="M90.0695 1.05051C98.9479 0.31018 108.499 3.85094 112.988 11.2573C114.276 12.9915 115.88 14.5329 116.721 16.5771C120.438 25.614 118.305 36.2512 118.887 45.8079C118.989 47.4868 119.248 52.4888 118.303 53.5718C116.644 53.7903 114.972 53.6687 113.305 53.6182C107.321 53.4372 101.338 53.5137 95.3515 53.5412C82.4382 53.3525 69.4477 46.3159 66.6418 32.7053C65.475 27.0452 66.5414 17.5722 70.1213 12.7475C75.4425 5.57511 81.4501 2.56766 90.0695 1.05051Z" fill="black"/>
<path d="M26.7415 131.207C30.1199 130.982 34.9465 131.17 38.4275 131.158C43.627 131.141 49.1387 131.029 54.311 131.184C52.8394 146.011 57.9043 160.947 48.0488 173.425C42.1003 180.957 38.0684 182.964 28.7476 183.61C22.192 183.944 15.7542 181.776 10.7371 177.543C5.33917 172.976 1.97477 166.453 1.38286 159.407C0.113879 144.028 11.7475 132.339 26.7415 131.207Z" fill="black"/>
<path d="M131.934 196.16C147.296 197.48 164.651 191.91 176.629 204.486C181.586 209.596 184.283 216.483 184.115 223.601C183.955 230.28 180.567 236.985 175.793 241.523C169.947 246.177 163.169 249.46 155.457 248.584C147.664 247.698 142.12 244.514 137.159 238.561C129.384 229.23 131.53 220.004 131.266 208.665C131.183 205.122 131.079 201.256 131.168 197.73C131.188 196.924 131.394 196.592 131.934 196.16Z" fill="black"/>
<path d="M221.826 66.2585C236.094 65.4763 247.889 76.8694 248.834 90.9163C249.22 97.6455 246.976 104.261 242.575 109.367C237.099 115.616 231.286 117.999 223.205 118.513C221.462 118.729 216.191 118.607 214.158 118.608L196.202 118.577C196.19 118.465 196.18 118.352 196.172 118.239C195.972 115.609 196.28 108.662 196.291 105.474C196.337 92.4834 194.797 84.8174 203.933 74.1186C209.359 67.7644 213.569 66.8618 221.826 66.2585Z" fill="black"/>
</svg>
